# xmcd
#
# Track frame offsets:
#	150
#	10269
#	30935
#	42807
#	59921
#	84810
#	105896
#	122937
#	135504
#	157466
#	173431
#
# Disc length: 2533 seconds
#
# Revision: 1
# Processed by: cddbd v1.5.2PL0 Copyright (c) Steve Scherf et al.
# Submitted via: audiograbber 1.83.01
#
DISCID=8109e30b
DTITLE=Hauptkampflinie - Bis aufs Blut
DYEAR=1900
DGENRE=
TTITLE0=Durch die Nebel von Asgard
TTITLE1=Ragnaröck
TTITLE2=Sklave
TTITLE3=Wehrmachtssoldaten
TTITLE4=Wo ist nur ihre Ehre geblieben?
TTITLE5=Unsterblicher Geist
TTITLE6=Deutsche Stadt
TTITLE7=White Power
TTITLE8=Bis aufs Blut
TTITLE9=Zimmer frei
TTITLE10=Danke Amerika
EXTD=
EXTT0=
EXTT1=
EXTT2=
EXTT3=
EXTT4=
EXTT5=
EXTT6=
EXTT7=
EXTT8=
EXTT9=
EXTT10=
PLAYORDER=
